<?xml version="1.0" encoding="utf-8"?>
<!-- Generator: Adobe Illustrator 24.1.0, SVG Export Plug-In . SVG Version: 6.00 Build 0)  -->
<svg version="1.1" id="Capa_1" xmlns="http://www.w3.org/2000/svg" xmlns:xlink="http://www.w3.org/1999/xlink" x="0px" y="0px"
	 viewBox="0 0 595.8 512" style="enable-background:new 0 0 595.8 512;" xml:space="preserve">
<style type="text/css">
	.st0{fill:#FFCE00;}
	.st1{fill:#7C68EC;}
	.st2{fill:#685CD6;}
</style>
<g>
	<path class="st0" d="M297.1,178c-22.9,51.7-6.5,105,42.7,137.9s122.9,40.2,190.9,18.6c-94.4,9.6-126-43.5-139.9-111
		s-5.8-128.7,84.7-157.2c-8.9,0.9-17.7,2.3-26.6,4.1C378.6,84.8,320.1,126.3,297.1,178z"/>
	<path class="st1" d="M474.5,352.5c3.8-29.9-10.9-59.1-37.2-73.8c-26.3-14.7-58.9-12-82.4,6.9c-26-38.5-72.2-58.1-117.9-50.2
		c-45.8,7.9-82.6,41.9-94.2,86.9c-28.8-14.1-63.3-9.1-86.9,12.6s-31.4,55.7-19.8,85.5c11.7,29.9,40.4,49.5,72.5,49.5h356.9
		c30.9,0.1,56.6-23.6,59-54.4C526.8,384.6,505.1,357.2,474.5,352.5z"/>
	<path class="st2" d="M480.6,352.5c2.8-21.1-3.6-42.4-17.7-58.3c-14.1-16-34.4-25.1-55.6-24.9c-7.5,0-15,1.2-22.2,3.5
		c34.1,10.6,55.6,44.3,50.9,79.8c30.5,4.7,52.2,32.1,49.8,62.9s-28,54.5-58.9,54.4h44.7c30.8,0,56.5-23.7,58.9-54.4
		C532.8,384.6,511.1,357.2,480.6,352.5z"/>
	<path class="st2" d="M145,314.2c6,48.5,35.6,65.3,35.6,65.3c-5.2-18.7-5.8-38.3-1.9-57.3C168.2,317,156.7,314.3,145,314.2z"/>
</g>
</svg>
