<?xml version="1.0" encoding="utf-8"?>
<!-- Generator: Adobe Illustrator 24.1.0, SVG Export Plug-In . SVG Version: 6.00 Build 0)  -->
<svg version="1.1" id="Capa_1" xmlns="http://www.w3.org/2000/svg" xmlns:xlink="http://www.w3.org/1999/xlink" x="0px" y="0px"
	 viewBox="0 0 595.8 512" style="enable-background:new 0 0 595.8 512;" xml:space="preserve">
<style type="text/css">
	.st0{fill:#FFE529;}
	.st1{fill:#FFCE00;}
	.st2{fill:#7C68EC;}
	.st3{fill:#685CD6;}
</style>
<g>
	<path class="st0" d="M204.1,101.8c68.8,0,124.6,55.8,124.6,124.6S272.9,351,204.1,351S79.5,295.1,79.5,226.3
		S135.3,101.8,204.1,101.8z"/>
	<path class="st1" d="M93.2,169.1c-21.4,41.4-17.9,91.4,9.1,129.4s73,57.8,119.2,51.1c-61.4-8.7-107.1-61.3-107.1-123.3
		S160.1,111.7,221.5,103c-5.8-0.8-11.6-1.2-17.5-1.2C157.4,101.7,114.7,127.7,93.2,169.1z"/>
	<g>
		<path class="st0" d="M198.7,77.8c-1.4-1.4-2.2-3.3-2.2-5.3V42.2c0-4.2,3.4-7.5,7.5-7.5c4.2,0,7.5,3.4,7.5,7.5v30.3
			c0,4.2-3.4,7.5-7.5,7.5C202.1,80,200.1,79.2,198.7,77.8z"/>
		<path class="st0" d="M274.5,96.9c-1.3-2.3-1.3-5.2,0-7.5l15.1-26.2c2.1-3.6,6.7-4.8,10.3-2.7s4.8,6.7,2.8,10.3L287.6,97
			c-1.4,2.3-3.8,3.8-6.5,3.8C278.3,100.6,275.8,99.2,274.5,96.9z"/>
		<path class="st0" d="M337.4,156.9c-3.4,0-6.4-2.3-7.3-5.6s0.6-6.8,3.5-8.5l26.2-15.1c2.3-1.4,5.2-1.4,7.6,0
			c2.3,1.3,3.8,3.8,3.8,6.6c0,2.7-1.5,5.2-3.8,6.5l-26.2,15.1C340,156.6,338.7,156.9,337.4,156.9L337.4,156.9z"/>
		<path class="st0" d="M67.1,155.9l-26.2-15.1c-3.6-2.1-4.8-6.7-2.7-10.3c2.1-3.6,6.7-4.8,10.3-2.8l26.2,15.1c3,1.7,4.4,5.2,3.5,8.5
			s-3.9,5.6-7.3,5.6C69.5,156.9,68.2,156.6,67.1,155.9z"/>
		<path class="st0" d="M120.6,96.9l-15.1-26.2c-1.4-2.3-1.4-5.2,0-7.6c1.3-2.3,3.9-3.8,6.6-3.8s5.2,1.5,6.5,3.8l15.1,26.2
			c1.3,2.3,1.3,5.2,0,7.5s-3.8,3.8-6.5,3.8C124.5,100.6,122,99.2,120.6,96.9z"/>
		<path class="st0" d="M198.7,415.8c-1.4-1.4-2.2-3.3-2.2-5.3v-30.3c0-4.2,3.4-7.5,7.5-7.5c4.2,0,7.5,3.4,7.5,7.5v30.3
			c0,4.2-3.4,7.5-7.5,7.5C202.1,418,200.1,417.2,198.7,415.8z"/>
		<path class="st0" d="M19.9,233.9c-4.2,0-7.5-3.4-7.5-7.5c0-4.2,3.4-7.5,7.5-7.5h30.3c4.2,0,7.5,3.4,7.5,7.5c0,4.2-3.4,7.5-7.5,7.5
			H19.9L19.9,233.9z"/>
		<path class="st0" d="M350.4,226.3c0-4.2,3.4-7.5,7.5-7.5h30.3c4.2,0,7.5,3.4,7.5,7.5c0,4.2-3.4,7.5-7.5,7.5h-30.3
			C353.8,233.9,350.4,230.5,350.4,226.3z"/>
		<path class="st0" d="M112,393.4c-2.7,0-5.2-1.4-6.5-3.8c-1.3-2.3-1.3-5.2,0-7.5l15.1-26.2c1.3-2.4,3.8-3.8,6.5-3.8
			c2.7,0,5.2,1.4,6.6,3.8c1.3,2.3,1.3,5.2,0,7.6l-15.1,26.2C117.2,391.9,114.7,393.4,112,393.4L112,393.4z"/>
		<path class="st0" d="M37.3,320.4c-0.9-3.3,0.6-6.8,3.5-8.5L67,296.8c2.3-1.4,5.2-1.4,7.6,0c2.3,1.3,3.8,3.8,3.8,6.6
			c0,2.7-1.5,5.2-3.8,6.5L48.4,325c-1.1,0.7-2.4,1-3.8,1C41.2,326,38.2,323.7,37.3,320.4z"/>
		<path class="st0" d="M359.8,324.9l-26.2-15.1c-2.4-1.3-3.8-3.8-3.8-6.5s1.4-5.2,3.8-6.6c2.3-1.4,5.2-1.3,7.6,0l26.2,15.1
			c3,1.7,4.4,5.2,3.5,8.5s-3.9,5.6-7.3,5.6C362.2,326,360.9,325.6,359.8,324.9z"/>
		<path class="st0" d="M289.6,389.6l-15.1-26.2c-1.4-2.3-1.4-5.2,0-7.6c1.3-2.3,3.9-3.8,6.6-3.8s5.2,1.5,6.5,3.8l15.1,26.2
			c1.3,2.3,1.3,5.2,0,7.5s-3.8,3.8-6.5,3.8C293.5,393.4,291,391.9,289.6,389.6z"/>
	</g>
	<path class="st2" d="M527.5,359.5c3.8-29.9-10.9-59.1-37.2-73.8c-26.3-14.7-58.9-12-82.4,6.9c-26-38.5-72.2-58.1-117.9-50.2
		c-45.8,7.9-82.6,41.9-94.2,86.9c-28.8-14.1-63.3-9.1-86.9,12.6s-31.4,55.7-19.8,85.5c11.7,29.9,40.4,49.5,72.5,49.5h356.9
		c30.9,0.1,56.6-23.6,59-54.4C579.8,391.6,558.1,364.2,527.5,359.5z"/>
	<path class="st3" d="M527.5,359.5c2.8-21.1-3.6-42.4-17.7-58.3c-14.1-16-34.4-25.1-55.6-24.9c-7.5,0-15,1.2-22.2,3.5
		c34.1,10.6,55.6,44.3,50.9,79.8c30.5,4.7,52.2,32.1,49.8,62.9s-28,54.5-58.9,54.4h44.7c30.8,0,56.5-23.7,58.9-54.4
		C579.7,391.6,558,364.2,527.5,359.5z"/>
	<path class="st3" d="M162,321.2c6,48.5,35.6,65.3,35.6,65.3c-5.2-18.7-5.8-38.3-1.9-57.3C185.2,324,173.7,321.3,162,321.2z"/>
</g>
</svg>
